<svg width="104" height="79" xmlns="http://www.w3.org/2000/svg" xmlns:xlink="http://www.w3.org/1999/xlink"><svg version="1.1" id="facebook" viewBox="-1 -1 16 30" xml:space="preserve" width="16" height="30" xmlns="http://www.w3.org/2000/svg"><path d="M8.8 9.6V6.1c0-1 .8-1.8 1.8-1.8h1.8V0H8.8C5.9 0 3.5 2.4 3.5 5.2v4.4H0V14h3.5v14h5.2V14h3.5L14 9.6H8.8z" fill="#e16925"/></svg><svg version="1.1" id="germany" x="16" viewBox="-1 -1 30 20.3" xml:space="preserve" width="30" height="20.3" xmlns="http://www.w3.org/2000/svg"><path d="M25.9 0H2.1C.9 0 0 .9 0 2.1v4h28v-4C28 .9 27.1 0 25.9 0z" fill="#464655"/><path d="M0 16.2c0 1.2.9 2.1 2.1 2.1h23.8c1.2 0 2.1-.9 2.1-2.1v-4H0v4z" fill="#ffe15a"/><path d="M0 6.1h28v6.1H0z" fill="#ff4b55"/></svg><svg version="1.1" id="instagram" x="46" viewBox="-1 -1 30 30" xml:space="preserve" width="30" height="30" xmlns="http://www.w3.org/2000/svg"><style>.cst0{fill:#e16925}</style><path class="cst0" d="M19.2 0H8.8C3.9 0 0 3.9 0 8.8v10.5C0 24.1 3.9 28 8.8 28h10.5c4.8 0 8.8-3.9 8.8-8.8V8.8C28 3.9 24.1 0 19.2 0zm6.2 19.2c0 3.4-2.7 6.1-6.1 6.1H8.8c-3.4 0-6.1-2.7-6.1-6.1V8.8c0-3.4 2.7-6.1 6.1-6.1h10.5c3.4 0 6.1 2.7 6.1 6.1v10.4z"/><path class="cst0" d="M14 7c-3.9 0-7 3.1-7 7s3.1 7 7 7 7-3.1 7-7-3.1-7-7-7zm0 11.4c-2.4 0-4.4-2-4.4-4.4 0-2.4 2-4.4 4.4-4.4s4.4 2 4.4 4.4c0 2.4-2 4.4-4.4 4.4z"/><circle class="cst0" cx="21.5" cy="6.5" r=".9"/></svg><svg version="1.1" id="phone" x="76" viewBox="-1 -1 28 28" xml:space="preserve" width="28" height="28" xmlns="http://www.w3.org/2000/svg"><path d="M21.1 1.7L17.6 7c-.4.7-.3 1.6.3 2.1l2 1.5c.3.2.3.6.2.8l-.2.3c-.5 1-1.2 2.2-3.6 4.6s-3.6 3.1-4.6 3.6l-.3.1c-.3.2-.6.1-.8-.2l-1.5-2c-.5-.6-1.4-.8-2.1-.3L1.7 21c-.7.5-.9 1.4-.5 2.1l1.3 2.2c.4.7 1.1 1.2 1.8 1.4 2.9.8 7.9.2 15.2-7.1C25.4 13.8 27 9.4 27 6.4c0-.7-.1-1.4-.3-2-.2-.8-.7-1.4-1.4-1.8l-2.2-1.3c-.7-.5-1.6-.3-2 .4zm1.6.3l2.2 1.3c.5.3.9.8 1 1.3.7 2.7.1 7.3-6.9 14.4S7.3 26.6 4.6 25.9c-.6-.2-1-.5-1.3-1L2 22.7c-.2-.3-.1-.7.2-.9L5 19.9l2.4-1.6c.3-.2.7-.1.9.1l1.5 2c.5.6 1.3.8 1.9.4l.3-.2c1-.6 2.3-1.2 4.8-3.8 2.5-2.5 3.2-3.8 3.8-4.8l.2-.3c.4-.7.2-1.5-.4-1.9l-2-1.5c-.3-.2-.3-.6-.1-.9l3.5-5.3c.2-.2.6-.3.9-.1z" transform="translate(-1 -1)" fill="#003a61"/></svg><svg version="1.1" id="placeholder" y="50.3" viewBox="-1 -1 20.2 28" xml:space="preserve" width="20.2" height="28" xmlns="http://www.w3.org/2000/svg"><style>.est0{fill:#003a61}</style><path class="est0" d="M9.2 5.8c-1.8 0-3.3 1.5-3.3 3.3s1.5 3.3 3.3 3.3 3.3-1.5 3.3-3.3S11 5.8 9.2 5.8zm0 5.7c-1.3 0-2.4-1.1-2.4-2.4s1.1-2.4 2.4-2.4 2.4 1.1 2.4 2.4c-.1 1.3-1.1 2.4-2.4 2.4z"/><path class="est0" d="M15.5 2.7C13.8 1 11.5 0 9.1 0S4.4.9 2.7 2.7c-3.2 3.2-3.6 9.2-.9 12.8L9.1 26l7.3-10.5c2.7-3.6 2.3-9.6-.9-12.8zm.1 12.3l-6.5 9.4L2.6 15C.1 11.7.5 6.3 3.4 3.4 4.9 1.9 7 1 9.2 1s4.2.8 5.8 2.4c2.7 2.9 3.1 8.3.6 11.6z"/></svg><svg version="1.1" id="united-kingdom" y="30" viewBox="-1 -1 30 20.3" xml:space="preserve" width="30" height="20.3" xmlns="http://www.w3.org/2000/svg"><style>.fst2{fill:#ff4b55}</style><path d="M25.9 0H2.1C.9 0 0 .9 0 2.1v14.2c0 1.2.9 2.1 2.1 2.1h23.8c1.2 0 2.1-.9 2.1-2.1V2.1C28 .9 27.1 0 25.9 0z" fill="#41479b"/><path d="M28 1.8C27.8.8 27 0 25.9 0h-.5l-8.9 5.9V0h-4.8v5.9L2.6 0h-.5C1.1 0 .2.8 0 1.8l7.6 5H0v4.8h7.7l-7.6 5c.2 1 1 1.8 2.1 1.8h.5l8.9-5.9v5.9h4.8v-5.9l8.9 5.9h.5c1 0 1.9-.8 2.1-1.8l-7.6-5H28V6.8h-7.7l7.7-5z" fill="#f5f5f5"/><path class="fst2" d="M15.4 0h-2.8v7.7H0v2.9h12.6v7.7h2.8v-7.7H28V7.7H15.4z"/><path class="fst2" d="M1.4 18.2l10.2-6.6H9.8l-9.3 6c.2.3.5.5.9.6zm17.5-6.6h-1.8L27 18c.3-.2.5-.4.7-.7l-8.8-5.7zM.2 1.2l8.6 5.6h1.8L.8.4C.6.6.4.9.2 1.2zm18 5.6l9.3-6c-.2-.3-.5-.5-.9-.6L16.4 6.8h1.8z"/></svg></svg>