<svg xmlns="http://www.w3.org/2000/svg" viewBox="0 0 152 91.5"><style>.st9{fill:#fff}</style><g id="Layer_1_copy_3"><text transform="translate(51.495 91.543)" class="st9" font-size="10" font-family="FuturaBT-Book">EST. 2002</text><path class="st9" d="M5.8 69.3c-.3-.2-.6-.4-.8-.5-.3-.1-.5-.2-.8-.2-.3 0-.6.1-.8.2-.3.2-.4.4-.4.7 0 .2.1.3.2.4.1.1.2.2.4.3.2.1.4.2.6.2.2.1.4.1.6.2.8.3 1.4.6 1.8 1.1.4.5.6 1.1.6 1.8 0 .5-.1 1-.3 1.4s-.4.8-.7 1c-.3.3-.7.5-1.2.7-.5.2-1 .2-1.6.2-1.2 0-2.4-.4-3.4-1.1l1.1-2.1c.4.3.8.6 1.1.8s.7.2 1.1.2c.4 0 .7-.1.9-.3.2-.2.3-.4.3-.6 0-.1 0-.3-.1-.4-.1-.1-.1-.2-.3-.3-.1-.1-.3-.2-.5-.3-.2-.1-.4-.2-.7-.3-.3-.1-.7-.2-1-.3s-.6-.3-.8-.5-.4-.5-.6-.8c-.2-.3-.2-.7-.2-1.2s.1-.9.2-1.3c.2-.4.4-.7.7-1 .3-.3.6-.5 1.1-.7.4-.2.9-.2 1.4-.2.5 0 1 .1 1.5.2s1 .3 1.5.6l-.9 2.1zm10.4.7c-.6-.7-1.3-1-2.2-1-.4 0-.7.1-1.1.2s-.6.3-.8.6c-.2.2-.4.5-.6.9-.1.3-.2.7-.2 1.1 0 .4.1.8.2 1.1.1.3.3.6.6.9s.5.4.8.6c.3.1.7.2 1 .2.8 0 1.5-.3 2.2-1v3l-.3.1c-.4.1-.8.2-1.1.3-.3.1-.7.1-1 .1-.7 0-1.3-.1-1.9-.4-.6-.3-1.2-.6-1.6-1.1-.5-.5-.9-1-1.1-1.7-.3-.6-.4-1.3-.4-2.1s.1-1.4.4-2.1c.3-.6.7-1.2 1.1-1.6s1-.8 1.6-1.1 1.3-.4 2-.4c.4 0 .8 0 1.2.1.4.1.8.2 1.2.4V70zm4.8.6h3.7v-3.8h2.5v9.8h-2.5v-4H21v4h-2.5v-9.8H21v3.8zm8.2 1.1c0-.7.1-1.4.4-2s.6-1.2 1.1-1.6c.5-.5 1-.8 1.7-1.1.7-.3 1.4-.4 2.2-.4.8 0 1.5.1 2.2.4.7.3 1.2.6 1.7 1.1.5.5.9 1 1.1 1.6.3.6.4 1.3.4 2s-.1 1.4-.4 2c-.3.6-.6 1.2-1.1 1.6-.5.5-1.1.8-1.7 1.1-.7.3-1.4.4-2.2.4-.8 0-1.5-.1-2.2-.4s-1.2-.6-1.7-1.1c-.5-.5-.8-1-1.1-1.6-.3-.6-.4-1.3-.4-2zm2.6 0c0 .4.1.7.2 1.1.1.3.3.6.6.9.3.2.5.4.9.6s.7.2 1.1.2c.4 0 .7-.1 1.1-.2.3-.1.6-.3.9-.6s.5-.5.6-.9c.1-.3.2-.7.2-1.1 0-.4-.1-.7-.2-1.1-.1-.3-.3-.6-.6-.9s-.6-.4-.9-.6c-.4-.1-.7-.1-1.1-.1-.4 0-.7.1-1.1.2s-.6.3-.9.6c-.3.2-.5.5-.6.9-.1.2-.2.6-.2 1zm9.7 0c0-.7.1-1.4.4-2s.6-1.2 1.1-1.6c.5-.5 1-.8 1.7-1.1.7-.3 1.4-.4 2.2-.4.8 0 1.5.1 2.2.4.7.3 1.2.6 1.7 1.1.5.5.9 1 1.1 1.6s.4 1.3.4 2-.1 1.4-.4 2c-.3.6-.6 1.2-1.1 1.6-.5.5-1.1.8-1.7 1.1-.7.3-1.4.4-2.2.4-.8 0-1.5-.1-2.2-.4s-1.2-.6-1.7-1.1c-.5-.5-.8-1-1.1-1.6-.3-.6-.4-1.3-.4-2zm2.7 0c0 .4.1.7.2 1.1.1.3.3.6.6.9.3.2.5.4.9.6.3.1.7.2 1.1.2.4 0 .7-.1 1.1-.2.3-.1.6-.3.9-.6.3-.2.5-.5.6-.9.1-.3.2-.7.2-1.1 0-.4-.1-.7-.2-1.1-.1-.3-.3-.6-.6-.9l-.9-.6c-.4-.1-.8-.1-1.2-.1-.4 0-.7.1-1.1.2-.3.1-.6.3-.9.6-.3.2-.5.5-.6.9-.1.2-.1.6-.1 1zm12.6-4.9v7.6h3.1v2.2h-5.6v-9.8h2.5zm9 4.9c0-.7.1-1.4.4-2s.6-1.2 1.1-1.6c.5-.5 1-.8 1.7-1.1.7-.3 1.4-.4 2.2-.4.8 0 1.5.1 2.2.4.7.3 1.2.6 1.7 1.1.5.5.9 1 1.1 1.6s.4 1.3.4 2-.1 1.4-.4 2c-.3.6-.6 1.2-1.1 1.6-.5.5-1.1.8-1.7 1.1-.7.3-1.4.4-2.2.4-.8 0-1.5-.1-2.2-.4s-1.2-.6-1.7-1.1c-.5-.5-.8-1-1.1-1.6-.3-.6-.4-1.3-.4-2zm2.6 0c0 .4.1.7.2 1.1.1.3.3.6.6.9.3.2.5.4.9.6.3.1.7.2 1.1.2.4 0 .7-.1 1.1-.2.3-.1.6-.3.9-.6.3-.2.5-.5.6-.9.1-.3.2-.7.2-1.1 0-.4-.1-.7-.2-1.1-.1-.3-.3-.6-.6-.9l-.9-.6c-.4-.1-.7-.1-1.1-.1-.4 0-.7.1-1.1.2-.3.1-.6.3-.9.6-.3.2-.5.5-.6.9-.1.2-.2.6-.2 1zm15.7-2.8H81v1.6h2.8v2.2H81v3.8h-2.5v-9.8h5.6v2.2zm12.2 0h-3v1.6h2.9v2.2h-2.9v1.7h3v2.2h-5.6v-9.8h5.6v2.1zm2.1 7.7v-9.8h2.5l4.7 6v-6h2.5v9.8h-2.5l-4.7-6v6h-2.5zm17.1-5.5h5.1c0 .5 0 1-.1 1.4 0 .4-.1.8-.3 1.2-.2.5-.4 1-.7 1.4-.3.4-.7.7-1.1 1-.4.3-.9.5-1.4.6s-1 .2-1.6.2c-.8 0-1.5-.1-2.1-.4-.6-.3-1.2-.6-1.6-1.1s-.8-1-1.1-1.6c-.3-.6-.4-1.3-.4-2.1s.1-1.5.4-2.1c.2-.6.6-1.2 1.1-1.6.5-.5 1-.8 1.6-1.1.6-.3 1.4-.4 2.1-.4 1 0 1.9.2 2.7.7.8.4 1.4 1.1 1.8 2.1l-2.4 1c-.2-.5-.5-.9-.9-1.2-.4-.2-.8-.4-1.2-.4-.4 0-.7.1-1 .2-.3.1-.6.3-.8.6-.2.3-.4.6-.5 1-.1.4-.2.8-.2 1.2 0 .4.1.8.2 1.2.1.4.3.7.5.9.2.3.5.5.8.6.3.1.7.2 1.1.2.3 0 .5 0 .7-.1.2-.1.4-.1.6-.3.2-.1.3-.3.5-.5.1-.2.2-.4.2-.7h-2.1v-1.9zm9.5-4.3v7.6h3.1v2.2h-5.6v-9.8h2.5zm7.2 0v9.8h-2.5v-9.8h2.5zm7.8 2.5c-.3-.2-.6-.4-.8-.5s-.5-.2-.8-.2c-.3 0-.6.1-.8.2-.2.2-.3.4-.3.6 0 .2.1.3.2.4.1.1.2.2.4.3.2.1.4.2.6.2.2.1.4.1.6.2.8.3 1.4.6 1.8 1.1.4.5.6 1.1.6 1.8 0 .5-.1 1-.3 1.4-.2.4-.4.8-.7 1-.3.3-.7.5-1.2.7-.5.2-1 .2-1.6.2-1.2 0-2.4-.4-3.4-1.1l1.1-2.1c.4.3.8.6 1.1.8.4.2.7.2 1.1.2.4 0 .7-.1.9-.3.2-.2.3-.4.3-.6 0-.1 0-.3-.1-.4s-.1-.2-.3-.3c-.1-.1-.3-.2-.5-.3-.2-.1-.4-.2-.7-.3-.3-.1-.7-.2-1-.3-.3-.1-.6-.3-.8-.5s-.4-.5-.6-.8-.2-.7-.2-1.2.1-.9.2-1.3.4-.7.7-1c.3-.3.6-.5 1.1-.7.4-.2.9-.2 1.4-.2.5 0 1 .1 1.5.2s1 .3 1.5.6l-1 2.2zm5.8 1.3h3.7v-3.8h2.5v9.8h-2.5v-4h-3.7v4h-2.5v-9.8h2.5v3.8zm-123.7-45v3.3h-9.4v32.4H9.4V28.9H0v-3.3h22.1zm17.2 35.9c-2.5 0-4.9-.5-7.1-1.5-2.2-1-4.1-2.3-5.7-3.9s-2.9-3.5-3.8-5.7c-.9-2.2-1.4-4.5-1.4-6.9 0-2.5.5-4.9 1.4-7.1.9-2.2 2.2-4.1 3.8-5.7 1.6-1.6 3.5-2.9 5.7-3.8 2.2-.9 4.6-1.4 7.1-1.4 2.4 0 4.7.5 6.9 1.4 2.2.9 4.1 2.2 5.8 3.8 1.6 1.6 3 3.5 4 5.7s1.5 4.6 1.5 7.1c0 2.4-.5 4.8-1.5 6.9-1 2.2-2.3 4.1-4 5.7S48.4 59 46.3 60c-2.2 1-4.5 1.5-7 1.5zm0-32.5c-2 0-3.9.4-5.7 1.1-1.8.7-3.3 1.7-4.5 3-1.3 1.3-2.3 2.8-3 4.6-.7 1.8-1.1 3.7-1.1 5.7 0 1.9.4 3.8 1.1 5.5.7 1.7 1.7 3.3 3 4.6 1.3 1.3 2.8 2.4 4.5 3.1 1.8.8 3.6 1.2 5.7 1.2 1.9 0 3.8-.4 5.5-1.2 1.7-.8 3.3-1.8 4.6-3.1 1.3-1.3 2.4-2.8 3.1-4.6.8-1.7 1.1-3.6 1.1-5.5 0-2.1-.4-4-1.2-5.7-.8-1.7-1.8-3.3-3.2-4.6-1.3-1.3-2.9-2.3-4.6-3-1.5-.7-3.4-1.1-5.3-1.1zm63.6-3.4c-2.5 6.1-5.1 12.1-7.6 18s-5.1 11.9-7.6 18L80 44.1 77 51l-4.6 10.7-15.2-36h3.7l11.5 26.5 3.2-7.1s0-.1.1-.2.1-.2.2-.3l2.3-5.1c-.6-1.5-1.2-2.9-1.8-4.4-.6-1.5-1.2-2.9-1.8-4.4l-2.1-4.9h3.9l3.7 9.2 3.8-9.2h3.8L82 39.6l5.7 12.7c.4-1 .9-2.1 1.5-3.4.5-1.2 1.1-2.5 1.6-3.7.6-1.3 1.1-2.5 1.6-3.7.5-1.2 1-2.4 1.5-3.5l5.3-12.2h3.7zm44.9 35.7l-10.2-15.7h-6.4v15.7h-3.3V25.6h9.4c1.3 0 2.5.2 3.7.7 1.2.5 2.3 1.1 3.2 2 1 .9 1.7 1.9 2.3 3.2.6 1.2.9 2.6.9 4.2 0 1.9-.6 3.7-1.7 5.3-1.1 1.6-2.5 2.8-4.3 3.7 1.8 2.8 3.5 5.6 5.4 8.3 1.8 2.8 3.6 5.5 5.4 8.3h-4.4zm-10.4-19.4c1 0 1.8-.2 2.6-.6.8-.4 1.4-.9 1.9-1.5s.9-1.3 1.2-2 .4-1.5.4-2.2c0-1.2-.2-2.1-.7-3-.4-.8-1-1.5-1.6-2-.6-.5-1.3-.9-2-1.1-.7-.2-1.3-.4-1.9-.4h-6.2v12.6h6.3zm-33-.4H123v3.2h-18.6zm0-15.9H123v3.6h-18.6zm0 32.1H123v3.6h-18.6zm0-46.5H123v3.6h-18.6z"/><path class="st9" d="M118.7 14.1l-4.3-11.8v-.8l.4-.4-.4-.4h-.3V.2l-.2-.2h-.3l-.2.2v.5h-.3l-.4.4.4.4v.8l-4.4 11.8zm0-1.4h4.3L121.2 6V5h-.6v.9zm-14.3 0h4.3L106.9 6V5h-.6v.9z"/></g></svg>