<svg version="1.1" id="Capa_1" xmlns="http://www.w3.org/2000/svg" x="0" y="0" viewBox="0 0 20 20" xml:space="preserve"><style>.st1{fill:#3e4347}.st3{fill:#5a5f63}</style><circle cx="10" cy="10" r="10" fill="#ffd93b"/><path class="st1" d="M10 16.4c-2.9 0-5.5-2-6.2-4.8-.1-.2.1-.4.3-.5.2-.1.4.1.5.3.6 2.5 2.8 4.2 5.4 4.2s4.8-1.7 5.4-4.2c.1-.2.3-.4.5-.3.2.1.4.3.3.5-.7 2.9-3.3 4.8-6.2 4.8z"/><path d="M20 10c0 5.5-4.5 10-10 10-3.1 0-5.9-1.5-7.8-3.7 1.7 1.4 3.9 2.2 6.3 2.2 5.5 0 10-4.5 10-10 0-2.4-.8-4.6-2.2-6.3C18.6 4.1 20 6.9 20 10z" fill="#f4c534"/><ellipse class="st1" cx="6.8" cy="8.6" rx="1.5" ry="1.8"/><path class="st3" d="M7.5 8.2c-.1.1-.3.1-.5-.1-.1-.1-.1-.3 0-.4.1-.1.3-.1.4.1.2.1.2.3.1.4z"/><ellipse class="st1" cx="13.2" cy="8.6" rx="1.5" ry="1.8"/><path class="st3" d="M13.9 8.2c-.1.1-.3 0-.4-.1-.1-.2-.1-.4 0-.5.1-.1.3-.1.4.1.2.2.2.4 0 .5z"/></svg>