<?xml version="1.0" encoding="utf-8"?>
<!-- Generator: Adobe Illustrator 20.1.0, SVG Export Plug-In . SVG Version: 6.00 Build 0)  -->
<svg version="1.1" xmlns="http://www.w3.org/2000/svg" xmlns:xlink="http://www.w3.org/1999/xlink" x="0px" y="0px"
	 viewBox="0 0 152 91.5" style="enable-background:new 0 0 152 91.5;" xml:space="preserve">
<style type="text/css">
	.st0{display:none;}
	.st1{display:inline;}
	.st2{fill:#003A61;}
	.st3{font-family:'FuturaBT-Book';}
	.st4{font-size:10px;}
	.st5{font-family:'Futura-Bold';}
	.st6{font-size:13px;}
	.st7{font-family:'BrixtonBook';}
	.st8{font-size:50.9664px;}
	.st9{fill:#FFFFFF;}
	.st10{letter-spacing:2;}
	.st11{fill:#E06A26;}
	.st12{clip-path:url(#SVGID_2_);fill:#E06A26;}
</style>
<g id="Layer_1_copy_2" class="st0">
	<g class="st1">
		<g>
			<text transform="matrix(1 0 0 1 51.4955 91.5426)" class="st2 st3 st4">EST. 2002</text>
		</g>
		<text transform="matrix(1 0 0 1 -0.6145 76.575)"><tspan x="0" y="0" class="st2 st5 st6">School of Englis</tspan><tspan x="142.3" y="0" class="st2 st5 st6">h</tspan></text>
		<g>
			<text transform="matrix(1 0 0 1 0.5605 61.3015)"><tspan x="0" y="0" class="st2 st7 st8">TOW</tspan><tspan x="102.3" y="0" class="st9 st7 st8 st10">E</tspan><tspan x="125.7" y="0" class="st2 st7 st8">R</tspan></text>
			<rect x="104.4" y="41.5" class="st11" width="18.6" height="3.2"/>
			<rect x="104.4" y="25.6" class="st11" width="18.6" height="3.6"/>
			<rect x="104.4" y="11.2" class="st11" width="18.6" height="3.6"/>
			<rect x="104.4" y="57.7" class="st11" width="18.6" height="3.6"/>
		</g>
	</g>
	<g class="st1">
		<defs>
			<rect id="SVGID_1_" x="104" y="-20.8" width="20" height="35.6"/>
		</defs>
		<clipPath id="SVGID_2_">
			<use xlink:href="#SVGID_1_"  style="overflow:visible;"/>
		</clipPath>
		<path class="st12" d="M14.5,29.6h18.6v-8.2h0.7v-0.9h-0.7v-6.4h-4.3L24.5,2.3V1.5l0.4-0.4l-0.4-0.4h-0.3V0.2L23.9,0v-1.1h0.2v-0.3
			h-0.2v-0.4h0.2v-0.3h-0.2v-2.1L24-4.3v-0.5h0.3v-0.3H24V-6h-0.4v0.9h-0.3v0.3h0.3v0.5l0.1,0.1v2.1h-0.2v0.3h0.2v0.4h-0.2v0.3h0.2
			V0l-0.3,0.2v0.5h-0.3l-0.4,0.4l0.4,0.4v0.8l-4.3,11.7h-4.3v6.4h-0.7v0.9h0.7V29.6z M26.7,28.4h-5.8v-5.9h5.8V28.4z M28.9,22.4v5.9
			h-1.7v-5.9H28.9z M20.9,17.8v-2.1l2.9-4.2l2.9,4.2v2.1l0.5,0.9h-0.5v1.7h-5.8v-1.7h-0.5L20.9,17.8z M18.7,22.4h1.7v5.9h-1.7V22.4z
			 M15,43.7h-0.7v1.2H15v9.2h17.6v-9.2h0.7v-1.2h-0.7V32.1l1.2-1.2h-20l1.2,1.2V43.7z M21.3,52.2h-2.5v-0.5h2.5V52.2z M19.7,51.4
			v-2.5c0-1.2,0.4-1.3,0.4-1.3s0.4,0.1,0.4,1.3v2.5H19.7z M21.6,48.3h-0.5v-0.9h-1.9v0.9h-0.5v-1.5h3V48.3z M21.3,41.9v0.5h-2.5
			v-0.5H21.3z M19.7,41.7v-2.5c0-1.2,0.4-1.3,0.4-1.3s0.4,0.1,0.4,1.3v2.5H19.7z M21.6,38.6h-0.5v-0.9h-1.9v0.9h-0.5v-1.5h3V38.6z
			 M25,52.2h-2.5v-0.5H25V52.2z M23.4,51.4v-2.5c0-1.2,0.4-1.3,0.4-1.3s0.4,0.1,0.4,1.3v2.5H23.4z M25.3,48.3h-0.5v-0.9h-1.9v0.9
			h-0.5v-1.5h3V48.3z M25,41.9v0.5h-2.5v-0.5H25z M23.4,41.7v-2.5c0-1.2,0.4-1.3,0.4-1.3s0.4,0.1,0.4,1.3v2.5H23.4z M25.3,38.6h-0.5
			v-0.9h-1.9v0.9h-0.5v-1.5h3V38.6z M28.7,52.2h-2.5v-0.5h2.5V52.2z M27.1,51.4v-2.5c0-1.2,0.4-1.3,0.4-1.3s0.4,0.1,0.4,1.3v2.5
			H27.1z M29,48.3h-0.5v-0.9h-1.9v0.9H26v-1.5h3V48.3z M28.7,41.9v0.5h-2.5v-0.5H28.7z M27.1,41.7v-2.5c0-1.2,0.4-1.3,0.4-1.3
			s0.4,0.1,0.4,1.3v2.5H27.1z M29,38.6h-0.5v-0.9h-1.9v0.9H26v-1.5h3V38.6z M18,33.1h11.6v0.7h-0.9v1.8h-0.8v-1.8h-0.7v1.8h-0.8
			v-1.8h-0.7v1.8h-0.8v-1.8h-0.7v1.8h-0.8v-1.8h-0.7v1.8h-0.8v-1.8h-0.7v1.8h-0.8v-1.8h-0.7v1.8h-0.8v-1.8H18V33.1z M36.4,75.8
			l2.5,4.9c-0.8,0.3-1.7,0.7-2.5,1v1.1c8.1-3.4,16.1-5.2,22.1-6.1c3.1-0.5,5.6-0.7,7.4-0.9c1.8-0.1,2.8-0.2,2.8-0.2c0,0,1,0,2.8,0.2
			c1.8,0.1,4.4,0.4,7.4,0.9c6,0.9,14.1,2.7,22.1,6.1v-1.1c-0.8-0.4-1.7-0.7-2.5-1l2.5-4.9V73H36.4V75.8z M98.2,75.2h2.3l-2.3,4.5
			V75.2z M97.5,80.3c-0.8-0.3-1.7-0.6-2.5-0.9l2.5-4.2V80.3z M94.4,75.2h2.3L94.4,79V75.2z M93.6,75.2V79c-0.8-0.2-1.6-0.5-2.4-0.7
			L93.6,75.2L93.6,75.2z M90.5,75.2h2.2l-2.2,2.9V75.2z M89.8,75.2v2.7c-0.7-0.2-1.5-0.4-2.2-0.6L89.8,75.2L89.8,75.2z M86.8,75.2
			h2.1l-1.9,2c0,0-0.1,0-0.1,0V75.2z M86,77c-0.6-0.1-1.2-0.3-1.8-0.4l1.8-1.4V77z M83,75.2h1.9l-1.6,1.2c-0.1,0-0.2,0-0.3-0.1V75.2
			z M81,75.2h1.2v1c-0.4-0.1-0.8-0.1-1.2-0.2V75.2z M80.6,75.2v0.7c-1.9-0.3-3.7-0.6-5.2-0.7H80.6z M57,75.2h5.2
			c-1.5,0.2-3.3,0.4-5.2,0.7V75.2z M55.3,75.2h1.2V76c-0.4,0.1-0.8,0.1-1.2,0.2V75.2z M54.6,75.2v1.2c-0.1,0-0.2,0-0.3,0.1l-1.6-1.2
			H54.6z M51.5,75.2l1.8,1.4c-0.6,0.1-1.2,0.3-1.8,0.4V75.2z M50.8,75.2v2c0,0-0.1,0-0.1,0l-1.9-2H50.8z M47.7,75.2L47.7,75.2
			l2.2,2.2c-0.7,0.2-1.4,0.4-2.2,0.6V75.2z M47,75.2v2.9l-2.2-2.9H47z M43.9,75.2L43.9,75.2l2.4,3.1c-0.8,0.2-1.6,0.5-2.4,0.7V75.2z
			 M43.2,75.2V79l-2.3-3.8H43.2z M40,75.3l2.5,4.2c-0.8,0.3-1.7,0.6-2.5,0.9V75.3z M39.3,75.2v4.5L37,75.2H39.3z M12.4,31.6
			c0,0,0.3-0.5,0.5-0.7v-2.9c-0.6,0.6-1.7,1.7-3.1,3C4.5,36-5.9,45-19.8,53.2v1.2l0.1,0l3,0.5l-3.1,4.3v1.4c2.3-1.4,4.8-3,7.3-4.8
			V73h-7.3v2.2h31V73H4V41.7C7,38.6,9.8,35.2,12.4,31.6z M4,37.5c3.6-3,6.3-5.5,8.1-7.2c-2.5,3.6-5.2,6.9-8.1,9.9V37.5z M1.9,39.3
			L0,42l-2.3,0.6C-0.8,41.4,0.6,40.3,1.9,39.3z M0.4,42.5L2.3,42c-1.5,1.5-3,3-4.6,4.3L0.4,42.5z M-3.9,43.8
			c0.2-0.2,0.4-0.3,0.6-0.5l2.9-0.7l-3.5,5.1l-0.1,0.1V43.8z M-5.8,45.2l-2.4,3.5l-2.6,0C-9.1,47.5-7.4,46.4-5.8,45.2z M-7.9,49.2
			l2.4,0c-1.7,1.4-3.4,2.7-5.1,3.9L-7.9,49.2z M-11.9,49.4c0.1-0.1,0.2-0.1,0.2-0.2l3,0l-3.3,4.8V49.4z M-19,53.9
			c1.8-1,3.5-2.1,5.1-3.2l-2.5,3.6L-19,53.9z M-18.2,58.3c-0.2,0.2-0.5,0.3-0.7,0.5l2.7-3.9l2.6,0.4C-15.2,56.3-16.7,57.4-18.2,58.3
			z M-12.5,54.5c-0.2,0.1-0.3,0.2-0.5,0.3l-2.8-0.4l3.1-4.4c0.1,0,0.1-0.1,0.2-0.1V54.5z M-4.6,73h-7.3V55.3
			c2.4-1.7,4.8-3.6,7.3-5.6V73z M-4.6,48.4c-0.1,0.1-0.2,0.2-0.4,0.3l-2.6,0l3-4.4V48.4z M3.3,73h-7.3V49.1c2.5-2.1,4.9-4.3,7.3-6.7
			V73z M3.3,40.9c-0.1,0.1-0.3,0.3-0.4,0.4l-2.2,0.5l2.6-3.8V40.9z M122.5,56.7h0.7v-1.2h-19.1v1.2h0.7v15.9h-2.4v11.8h22.4V72.5
			h-2.4V56.7z M109.6,72.5h-1V72c0-1.5,0.5-1.6,0.5-1.6s0.5,0.1,0.5,1.6V72.5z M110,67.2h-1.8v-2.5h1.8V67.2z M110,64.1h-1.8v-2.5
			h1.8V64.1z M110,61h-1.8v-2.5h1.8V61z M115.8,72.5h-4.1v-2.2h0.4c0.3-0.8,0.8-1.5,1.6-2c0.8,0.4,1.3,1.2,1.6,2h0.4V72.5z
			 M112.8,64.6c0,0,0.6,0.1,0.6,1.9v0.7h-1.2v-0.7C112.2,64.7,112.8,64.6,112.8,64.6z M112.2,63.9v-2.4c0-1.8,0.6-1.9,0.6-1.9
			s0.6,0.1,0.6,1.9v2.4H112.2z M114.7,64.6c0,0,0.6,0.1,0.6,1.9v0.7h-1.2v-0.7C114.1,64.7,114.7,64.6,114.7,64.6z M114.1,63.9v-2.4
			c0-1.8,0.6-1.9,0.6-1.9s0.6,0.1,0.6,1.9v2.4H114.1z M116.6,60.5h-0.8v-1.3h-4.2v1.3h-0.8v-2.1h5.7V60.5z M118.9,72.5h-1V72
			c0-1.5,0.5-1.6,0.5-1.6s0.5,0.1,0.5,1.6V72.5z M119.3,67.2h-1.8v-2.5h1.8V67.2z M119.3,64.1h-1.8v-2.5h1.8V64.1z M119.3,61h-1.8
			v-2.5h1.8V61z M104.4,29.6H123v-8.2h0.7v-0.9H123v-6.4h-4.3l-4.3-11.7V1.5l0.4-0.4l-0.4-0.4h-0.3V0.2L113.9,0h-0.2l-0.3,0.2v0.5
			h-0.3l-0.4,0.4l0.4,0.4v0.8l-4.3,11.7h-4.3v6.4h-0.7v0.9h0.7V29.6z M116.6,28.4h-5.8v-5.9h5.8V28.4z M118.8,22.4v5.9h-1.7v-5.9
			H118.8z M110.8,17.8v-2.1l2.9-4.2l2.9,4.2v2.1l0.5,0.9h-0.5v1.7h-5.8v-1.7h-0.5L110.8,17.8z M108.6,22.4h1.8v5.9h-1.8V22.4z
			 M157.3,54.4v-1.2C143.5,45,133,36,127.8,31.1c-1.5-1.4-2.5-2.4-3.1-3v2.9c0.1,0.2,0.5,0.7,0.5,0.7c2.6,3.6,5.4,7,8.4,10.1V73
			h-7.2v2.2h31V73h-7.3V55.8c2.5,1.8,5,3.3,7.3,4.8v-1.4l-3.1-4.3L157.3,54.4L157.3,54.4z M148.4,48.7l-2.6,0l-2.4-3.5
			C145,46.4,146.6,47.5,148.4,48.7z M148.2,53.1c-1.7-1.2-3.4-2.5-5.1-3.9l2.4,0L148.2,53.1z M142.1,44.3l3,4.4l-2.6,0
			c-0.1-0.1-0.2-0.2-0.4-0.3V44.3z M139.8,42.6l-2.3-0.6l-1.9-2.8C136.9,40.3,138.3,41.4,139.8,42.6z M139.8,46.4
			c-1.5-1.4-3.1-2.8-4.6-4.3l1.9,0.5L139.8,46.4z M134.2,38.1l2.6,3.8l-2.2-0.5c-0.1-0.1-0.3-0.3-0.4-0.4V38.1z M133.5,40.2
			c-2.9-3.1-5.6-6.4-8.1-9.9c1.7,1.7,4.5,4.2,8.1,7.2V40.2z M141.5,73h-7.3V42.4c2.4,2.4,4.8,4.6,7.3,6.7V73z M141.5,47.8
			L141.5,47.8l-3.5-5.1l2.9,0.7c0.2,0.2,0.4,0.3,0.6,0.5V47.8z M149.4,73h-7.3V49.7c2.4,2,4.9,3.9,7.3,5.6V73z M149.4,54l-3.3-4.8
			l3,0c0.1,0.1,0.2,0.1,0.2,0.2V54z M150.1,54.5v-4.7c0.1,0,0.1,0.1,0.2,0.1l3.1,4.4l-2.8,0.4C150.4,54.7,150.2,54.6,150.1,54.5z
			 M156.5,58.8c-0.2-0.2-0.5-0.3-0.7-0.5c-1.5-0.9-3-2-4.5-3l2.6-0.4L156.5,58.8z M154,54.3l-2.5-3.6c1.7,1.1,3.4,2.1,5.1,3.2
			L154,54.3z M103.1,27.1h-0.3l-0.5-0.6l0.8-1V25l-0.8-1l0.3-0.3h0.5v-0.9H90.9v-0.5h-3.2v0.5H71.5V21h0.4v-0.7h-1.1V21h0.4v0.7
			h-1.5l-0.1-0.8L69,20.5v-0.7h0.3v-0.4H69v-1.2h-0.5v1.2h-0.3v0.4h0.3v0.7l-0.6,0.5l-0.1,0.8h-1.5V21h0.4v-0.7h-1.1V21H66v1.8H49.8
			v-0.5h-3.2v0.5H34.4v0.9h0.5l0.3,0.3l-0.8,1v0.5l0.8,1l-0.5,0.6h-0.3v2.5h68.7V27.1z M45.6,23.7L45.6,23.7h-0.1H45.6z M46.4,25.3
			l-0.8,1l-0.8-1l0.8-1L46.4,25.3z M44.1,23.7h1l0.3,0.3l-0.8,1l-0.8-1L44.1,23.7z M44.3,25.3l-0.8,1l-0.8-1l0.8-1L44.3,25.3z
			 M43.6,23.7L43.6,23.7h-0.1H43.6z M42,23.7h1l0.3,0.3l-0.8,1l-0.8-1L42,23.7z M42.3,25.3l-0.8,1l-0.8-1l0.8-1L42.3,25.3z
			 M41.6,23.7L41.6,23.7h-0.1H41.6z M40,23.7h1l0.3,0.3l-0.8,1l-0.8-1L40,23.7z M40.3,25.3l-0.8,1l-0.8-1l0.8-1L40.3,25.3z
			 M39.6,23.7L39.6,23.7h-0.1H39.6z M38,23.7h1l0.3,0.4l-0.8,1l-0.8-1L38,23.7z M38.3,25.3l-0.8,1l-0.8-1l0.8-1L38.3,25.3z
			 M37.5,23.7L37.5,23.7h-0.1H37.5z M36,23.7h1l0.3,0.3l-0.8,1l-0.8-1L36,23.7z M35.5,23.7L35.5,23.7h-0.1H35.5z M34.7,25.3l0.8-1
			l0.8,1l-0.8,1L34.7,25.3z M35.2,27.1l0.3-0.3l0.3,0.3H35.2z M36.1,27.1l-0.5-0.6l0.8-1l0.8,1l-0.5,0.6H36.1z M37.2,27.1l0.3-0.3
			l0.2,0.3H37.2z M38.2,27.1l-0.5-0.6l0.8-1l0.8,1l-0.5,0.6H38.2z M39.2,27.1l0.3-0.3l0.3,0.3H39.2z M40.2,27.1l-0.5-0.6l0.8-1
			l0.8,1l-0.5,0.6H40.2z M41.3,27.1l0.3-0.3l0.3,0.3H41.3z M42.2,27.1l-0.5-0.6l0.8-1l0.8,1l-0.5,0.6H42.2z M43.3,27.1l0.3-0.3
			l0.3,0.3H43.3z M44.2,27.1l-0.5-0.6l0.8-1l0.8,1l-0.5,0.6H44.2z M45.3,27.1l0.3-0.3l0.2,0.3H45.3z M46.6,27.1h-0.3l-0.5-0.6l0.8-1
			l0,0V27.1z M46.6,25L46.6,25l-0.8-0.9l0.3-0.3h0.5V25z M65.1,23.7L65.1,23.7h-0.1H65.1z M65.8,25.3l-0.8,1l-0.8-1l0.8-1L65.8,25.3
			z M63.5,23.7h1l0.3,0.3L64,25l-0.8-1L63.5,23.7z M63.8,25.3l-0.8,1l-0.8-1l0.8-1L63.8,25.3z M63,23.7L63,23.7h-0.1H63z M61.4,23.7
			h1l0.3,0.3l-0.8,1l-0.8-1L61.4,23.7z M61.7,25.3l-0.8,1l-0.8-1l0.8-1L61.7,25.3z M61,23.7L61,23.7h-0.1H61z M59.4,23.7h1l0.3,0.3
			l-0.8,1l-0.8-1L59.4,23.7z M59.7,25.3l-0.8,1l-0.8-1l0.8-1L59.7,25.3z M59,23.7L59,23.7h-0.1H59z M57.4,23.7h1l0.3,0.4l-0.8,1
			l-0.8-1L57.4,23.7z M57.7,25.3l-0.8,1l-0.8-1l0.8-1L57.7,25.3z M57,23.7L57,23.7h-0.1H57z M55.4,23.7h1l0.3,0.3l-0.8,1l-0.8-1
			L55.4,23.7z M55.7,25.3l-0.8,1l-0.8-1l0.8-1L55.7,25.3z M54.9,23.7L54.9,23.7h-0.1H54.9z M53.4,23.7h1l0.3,0.3l-0.8,1l-0.8-1
			L53.4,23.7z M53.6,25.3l-0.8,1l-0.8-1l0.8-1L53.6,25.3z M52.9,23.7L52.9,23.7h-0.1H52.9z M51.3,23.7h1l0.3,0.4l-0.8,1l-0.8-1
			L51.3,23.7z M51.6,25.3l-0.8,1l-0.8-1l0.8-1L51.6,25.3z M50.9,23.7L50.9,23.7h-0.1H50.9z M49.8,23.7h0.5l0.3,0.3l-0.8,1V23.7z
			 M49.8,27.1v-1.5l0.8,1l-0.5,0.6H49.8z M50.6,27.1l0.3-0.3l0.2,0.3H50.6z M51.5,27.1L51,26.5l0.8-1l0.8,1l-0.5,0.6H51.5z
			 M52.6,27.1l0.2-0.3l0.3,0.3H52.6z M53.5,27.1l-0.5-0.6l0.8-1l0.8,1l-0.5,0.6H53.5z M54.6,27.1l0.3-0.3l0.3,0.3H54.6z M55.6,27.1
			l-0.5-0.6l0.8-1l0.8,1l-0.5,0.6H55.6z M56.6,27.1l0.3-0.3l0.2,0.3H56.6z M57.6,27.1l-0.5-0.6l0.8-1l0.8,1l-0.5,0.6H57.6z
			 M58.7,27.1l0.3-0.3l0.3,0.3H58.7z M59.6,27.1l-0.5-0.6l0.8-1l0.8,1l-0.5,0.6H59.6z M60.7,27.1l0.3-0.3l0.2,0.3H60.7z M61.6,27.1
			l-0.5-0.6l0.8-1l0.8,1l-0.5,0.6H61.6z M62.7,27.1l0.3-0.3l0.3,0.3H62.7z M63.6,27.1l-0.5-0.6l0.8-1l0.8,1l-0.5,0.6H63.6z
			 M64.7,27.1l0.3-0.3l0.3,0.3H64.7z M66,27.1h-0.3l-0.5-0.6l0.8-1V27.1z M66,25l-0.8-1l0.3-0.3H66V25z M86.8,23.7L86.8,23.7h-0.1
			H86.8z M87.5,25.3l-0.8,1l-0.8-1l0.8-1L87.5,25.3z M85.2,23.7h1l0.3,0.3l-0.8,1l-0.8-1L85.2,23.7z M85.5,25.3l-0.8,1l-0.8-1l0.8-1
			L85.5,25.3z M84.8,23.7L84.8,23.7h-0.1H84.8z M83.2,23.7h1l0.3,0.3l-0.8,1l-0.8-1L83.2,23.7z M83.5,25.3l-0.8,1l-0.8-1l0.8-1
			L83.5,25.3z M82.7,23.7L82.7,23.7h-0.1H82.7z M81.2,23.7h1l0.3,0.3l-0.8,1l-0.8-1L81.2,23.7z M81.4,25.3l-0.8,1l-0.8-1l0.8-1
			L81.4,25.3z M80.7,23.7L80.7,23.7h-0.1H80.7z M79.1,23.7h1l0.3,0.4l-0.8,1l-0.8-1L79.1,23.7z M79.4,25.3l-0.8,1l-0.8-1l0.8-1
			L79.4,25.3z M78.7,23.7L78.7,23.7h-0.1H78.7z M77.1,23.7h1l0.3,0.3l-0.8,1l-0.8-1L77.1,23.7z M77.4,25.3l-0.8,1l-0.8-1l0.8-1
			L77.4,25.3z M76.7,23.7L76.7,23.7h-0.1H76.7z M75.1,23.7h1l0.3,0.3l-0.8,1l-0.8-1L75.1,23.7z M75.4,25.3l-0.8,1l-0.8-1l0.8-1
			L75.4,25.3z M74.6,23.7L74.6,23.7h-0.1H74.6z M73.1,23.7h1l0.3,0.4l-0.8,1l-0.8-1L73.1,23.7z M73.3,25.3l-0.8,1l-0.8-1l0.8-1
			L73.3,25.3z M72.6,23.7L72.6,23.7h-0.1H72.6z M71.5,23.7H72l0.3,0.3l-0.8,1V23.7z M71.5,27.1v-1.5l0.8,1l-0.5,0.6H71.5z
			 M72.3,27.1l0.3-0.3l0.3,0.3H72.3z M73.2,27.1l-0.5-0.6l0.8-1l0.8,1l-0.5,0.6H73.2z M74.3,27.1l0.3-0.3l0.3,0.3H74.3z M75.3,27.1
			l-0.5-0.6l0.8-1l0.8,1l-0.5,0.6H75.3z M76.4,27.1l0.3-0.3l0.3,0.3H76.4z M77.3,27.1l-0.5-0.6l0.8-1l0.8,1l-0.5,0.6H77.3z
			 M78.4,27.1l0.2-0.3l0.3,0.3H78.4z M79.3,27.1l-0.5-0.6l0.8-1l0.8,1L80,27.1H79.3z M80.4,27.1l0.2-0.3l0.3,0.3H80.4z M81.3,27.1
			l-0.5-0.6l0.8-1l0.8,1L82,27.1H81.3z M82.4,27.1l0.2-0.3l0.3,0.3H82.4z M83.4,27.1l-0.5-0.6l0.8-1l0.8,1L84,27.1H83.4z M84.4,27.1
			l0.3-0.3l0.2,0.3H84.4z M85.4,27.1l-0.5-0.6l0.8-1l0.8,1L86,27.1H85.4z M86.5,27.1l0.3-0.3l0.3,0.3H86.5z M87.7,27.1h-0.3
			l-0.5-0.6l0.8-1V27.1z M87.7,25l-0.8-1l0.3-0.3h0.5V25z M102.9,25.3l-0.8,1l-0.8-1l0.8-1L102.9,25.3z M102.2,23.7L102.2,23.7H102
			H102.2z M100.6,23.7h1l0.3,0.3l-0.8,1l-0.8-1L100.6,23.7z M100.9,25.3l-0.8,1l-0.8-1l0.8-1L100.9,25.3z M100.1,23.7L100.1,23.7
			H100H100.1z M98.5,23.7h1l0.3,0.4l-0.8,1l-0.8-1L98.5,23.7z M98.8,25.3l-0.8,1l-0.8-1l0.8-1L98.8,25.3z M98.1,23.7L98.1,23.7H98
			H98.1z M96.5,23.7h1l0.3,0.3L97,25l-0.8-1L96.5,23.7z M96.8,25.3l-0.8,1l-0.8-1l0.8-1L96.8,25.3z M96.1,23.7L96.1,23.7h-0.1H96.1z
			 M94.5,23.7h1l0.3,0.3L95,25l-0.8-1L94.5,23.7z M94.8,25.3l-0.8,1l-0.8-1l0.8-1L94.8,25.3z M94.1,23.7L94.1,23.7h-0.1H94.1z
			 M92.5,23.7h1l0.3,0.4L93,25l-0.8-1L92.5,23.7z M92.8,25.3l-0.8,1l-0.8-1l0.8-1L92.8,25.3z M92,23.7L92,23.7h-0.1H92z M90.9,23.7
			h0.5l0.3,0.3L91,25l0,0V23.7z M90.9,27.1v-1.5l0,0l0.8,1l-0.5,0.6H90.9z M91.7,27.1l0.3-0.3l0.3,0.3H91.7z M92.7,27.1l-0.5-0.6
			l0.8-1l0.8,1l-0.5,0.6H92.7z M93.7,27.1l0.3-0.3l0.3,0.3H93.7z M94.7,27.1l-0.5-0.6l0.8-1l0.8,1l-0.5,0.6H94.7z M95.8,27.1
			l0.2-0.3l0.3,0.3H95.8z M96.7,27.1l-0.5-0.6l0.8-1l0.8,1l-0.5,0.6H96.7z M97.8,27.1l0.2-0.3l0.3,0.3H97.8z M98.7,27.1l-0.5-0.6
			l0.8-1l0.8,1l-0.5,0.6H98.7z M99.8,27.1l0.2-0.3l0.3,0.3H99.8z M100.8,27.1l-0.5-0.6l0.8-1l0.8,1l-0.5,0.6H100.8z M101.8,27.1
			l0.3-0.3l0.2,0.3H101.8z M104.9,43.7h-0.7v1.2h0.7v9.2h17.6v-9.2h0.7v-1.2h-0.7V32.1l1.2-1.2h-20l1.2,1.2V43.7z M111.3,52.2h-2.5
			v-0.5h2.5V52.2z M109.6,51.4v-2.5c0-1.2,0.4-1.3,0.4-1.3s0.4,0.1,0.4,1.3v2.5H109.6z M111.6,48.3H111v-0.9h-1.9v0.9h-0.5v-1.5h3
			V48.3z M111.3,41.9v0.5h-2.5v-0.5H111.3z M109.6,41.7v-2.5c0-1.2,0.4-1.3,0.4-1.3s0.4,0.1,0.4,1.3v2.5H109.6z M111.6,38.6H111
			v-0.9h-1.9v0.9h-0.5v-1.5h3V38.6z M115,52.2h-2.5v-0.5h2.5V52.2z M113.3,51.4v-2.5c0-1.2,0.4-1.3,0.4-1.3s0.4,0.1,0.4,1.3v2.5
			H113.3z M115.2,48.3h-0.5v-0.9h-1.9v0.9h-0.5v-1.5h3V48.3z M115,41.9v0.5h-2.5v-0.5H115z M113.3,41.7v-2.5c0-1.2,0.4-1.3,0.4-1.3
			s0.4,0.1,0.4,1.3v2.5H113.3z M115.2,38.6h-0.5v-0.9h-1.9v0.9h-0.5v-1.5h3V38.6z M118.6,52.2h-2.5v-0.5h2.5V52.2z M117,51.4v-2.5
			c0-1.2,0.4-1.3,0.4-1.3s0.4,0.1,0.4,1.3v2.5H117z M118.9,48.3h-0.5v-0.9h-1.9v0.9h-0.5v-1.5h3V48.3z M118.6,41.9v0.5h-2.5v-0.5
			H118.6z M117,41.7v-2.5c0-1.2,0.4-1.3,0.4-1.3s0.4,0.1,0.4,1.3v2.5H117z M118.9,38.6h-0.5v-0.9h-1.9v0.9h-0.5v-1.5h3V38.6z
			 M108,33.1h11.6v0.7h-0.9v1.8h-0.8v-1.8h-0.7v1.8h-0.8v-1.8h-0.7v1.8h-0.8v-1.8h-0.7v1.8h-0.8v-1.8h-0.7v1.8h-0.8v-1.8h-0.7v1.8
			h-0.8v-1.8h-0.7v1.8h-0.8v-1.8H108V33.1z M14.5,12.7h4.3L17,5.9V5h0.2V4.7h-0.3V3.9h0.7V3.6h-0.7V2.7l0.2-0.2l-0.4-0.7l-0.4,0.7
			l0.2,0.2v0.9h-0.7v0.3h0.7v0.8h-0.3V5h0.2V6L14.5,12.7z M32.6,56.7h0.7v-1.2H14.3v1.2H15v15.9h-2.4v11.8H35V72.5h-2.4V56.7z
			 M19.6,72.5h-1V72c0-1.5,0.5-1.6,0.5-1.6s0.5,0.1,0.5,1.6V72.5z M20,67.2h-1.8v-2.5H20V67.2z M20,64.1h-1.8v-2.5H20V64.1z M20,61
			h-1.8v-2.5H20V61z M25.8,72.5h-4.1v-2.2h0.4c0.3-0.8,0.8-1.5,1.6-2c0.8,0.4,1.3,1.2,1.6,2h0.4V72.5z M22.9,64.6
			c0,0,0.6,0.1,0.6,1.9v0.7h-1.2v-0.7C22.3,64.7,22.9,64.6,22.9,64.6z M22.3,63.9v-2.4c0-1.8,0.6-1.9,0.6-1.9s0.6,0.1,0.6,1.9v2.4
			H22.3z M24.7,64.6c0,0,0.6,0.1,0.6,1.9v0.7h-1.2v-0.7C24.2,64.7,24.7,64.6,24.7,64.6z M24.2,63.9v-2.4c0-1.8,0.6-1.9,0.6-1.9
			s0.6,0.1,0.6,1.9v2.4H24.2z M26.7,60.5h-0.8v-1.3h-4.2v1.3h-0.8v-2.1h5.7V60.5z M28.9,72.5h-1V72c0-1.5,0.5-1.6,0.5-1.6
			s0.5,0.1,0.5,1.6V72.5z M29.4,67.2h-1.8v-2.5h1.8V67.2z M29.4,64.1h-1.8v-2.5h1.8V64.1z M29.4,61h-1.8v-2.5h1.8V61z M118.7,12.7
			h4.3L121.2,6V5h-0.6v0.8L118.7,12.7z M104.4,12.7h4.3L106.9,6V5h-0.6v0.8L104.4,12.7z M28.8,12.7h4.3l-1.8-6.9V5h0.2V4.7h-0.3V3.9
			h0.7V3.6h-0.7V2.7l0.2-0.2l-0.4-0.7l-0.4,0.7l0.2,0.2v0.9H30v0.3h0.7v0.8h-0.3V5h0.2V6L28.8,12.7z M115.6,18.4
			c0-1.4-0.5-1.5-0.5-1.5s-0.5,0.1-0.5,1.5v1.8h0.9V18.4z M109.6,60.4c0-1.5-0.5-1.6-0.5-1.6s-0.5,0.1-0.5,1.6v0.3h1V60.4z
			 M109.6,63.5c0-1.5-0.5-1.6-0.5-1.6s-0.5,0.1-0.5,1.6v0.3h1V63.5z M114.2,24.8c0-1.4-0.5-1.5-0.5-1.5s-0.5,0.1-0.5,1.5v2.8h0.9
			V24.8z M112.9,24.8c0-1.4-0.5-1.5-0.5-1.5s-0.5,0.1-0.5,1.5v2.8h0.9V24.8z M109.6,66.6c0-1.5-0.5-1.6-0.5-1.6s-0.5,0.1-0.5,1.6
			v0.3h1V66.6z M114.2,18.4c0-1.4-0.5-1.5-0.5-1.5s-0.5,0.1-0.5,1.5v1.8h0.9V18.4z M115.6,24.8c0-1.4-0.5-1.5-0.5-1.5
			s-0.5,0.1-0.5,1.5v2.8h0.9V24.8z M118.4,24.8c0-1.4-0.5-1.5-0.5-1.5s-0.5,0.1-0.5,1.5v2.8h0.9V24.8z M118.9,63.5
			c0-1.5-0.5-1.6-0.5-1.6s-0.5,0.1-0.5,1.6v0.3h1V63.5z M112.9,18.4c0-1.4-0.5-1.5-0.5-1.5s-0.5,0.1-0.5,1.5v1.8h0.9V18.4z
			 M118.9,60.4c0-1.5-0.5-1.6-0.5-1.6s-0.5,0.1-0.5,1.6v0.3h1V60.4z M109.5,23.3c0,0-0.5,0.1-0.5,1.5v2.8h0.9v-2.8
			C110,23.4,109.5,23.3,109.5,23.3z M118.9,66.6c0-1.5-0.5-1.6-0.5-1.6s-0.5,0.1-0.5,1.6v0.3h1V66.6z M25.6,24.8
			c0-1.4-0.5-1.5-0.5-1.5s-0.5,0.1-0.5,1.5v2.8h0.9V24.8z M19.6,60.4c0-1.5-0.5-1.6-0.5-1.6s-0.5,0.1-0.5,1.6v0.3h1V60.4z
			 M19.6,66.6c0-1.5-0.5-1.6-0.5-1.6s-0.5,0.1-0.5,1.6v0.3h1V66.6z M24.3,24.8c0-1.4-0.5-1.5-0.5-1.5s-0.5,0.1-0.5,1.5v2.8h0.9V24.8
			z M19.6,63.5c0-1.5-0.5-1.6-0.5-1.6s-0.5,0.1-0.5,1.6v0.3h1V63.5z M28.9,63.5c0-1.5-0.5-1.6-0.5-1.6S28,62,28,63.5v0.3h1V63.5z
			 M28.9,60.4c0-1.5-0.5-1.6-0.5-1.6S28,58.9,28,60.4v0.3h1V60.4z M28.9,66.6c0-1.5-0.5-1.6-0.5-1.6S28,65.1,28,66.6v0.3h1V66.6z
			 M19.6,23.3c0,0-0.5,0.1-0.5,1.5v2.8H20v-2.8C20,23.4,19.6,23.3,19.6,23.3z M22.9,24.8c0-1.4-0.5-1.5-0.5-1.5S22,23.4,22,24.8v2.8
			h0.9V24.8z M25.6,18.4c0-1.4-0.5-1.5-0.5-1.5s-0.5,0.1-0.5,1.5v1.8h0.9V18.4z M28.5,24.8c0-1.4-0.5-1.5-0.5-1.5s-0.5,0.1-0.5,1.5
			v2.8h0.9V24.8z M24.3,18.4c0-1.4-0.5-1.5-0.5-1.5s-0.5,0.1-0.5,1.5v1.8h0.9V18.4z M22.9,18.4c0-1.4-0.5-1.5-0.5-1.5S22,17,22,18.4
			v1.8h0.9V18.4z"/>
	</g>
</g>
<g id="Layer_1_copy_3">
	<g>
		<g>
			<text transform="matrix(1 0 0 1 51.4955 91.5426)" class="st2 st3 st4">EST. 2002</text>
		</g>
		<g>
			<path class="st2" d="M5.8,69.3c-0.3-0.2-0.6-0.4-0.8-0.5c-0.3-0.1-0.5-0.2-0.8-0.2c-0.3,0-0.6,0.1-0.8,0.2C3.1,69,3,69.2,3,69.5
				c0,0.2,0.1,0.3,0.2,0.4c0.1,0.1,0.2,0.2,0.4,0.3c0.2,0.1,0.4,0.2,0.6,0.2c0.2,0.1,0.4,0.1,0.6,0.2c0.8,0.3,1.4,0.6,1.8,1.1
				c0.4,0.5,0.6,1.1,0.6,1.8c0,0.5-0.1,1-0.3,1.4s-0.4,0.8-0.7,1c-0.3,0.3-0.7,0.5-1.2,0.7c-0.5,0.2-1,0.2-1.6,0.2
				c-1.2,0-2.4-0.4-3.4-1.1l1.1-2.1c0.4,0.3,0.8,0.6,1.1,0.8s0.7,0.2,1.1,0.2c0.4,0,0.7-0.1,0.9-0.3c0.2-0.2,0.3-0.4,0.3-0.6
				c0-0.1,0-0.3-0.1-0.4c-0.1-0.1-0.1-0.2-0.3-0.3c-0.1-0.1-0.3-0.2-0.5-0.3c-0.2-0.1-0.4-0.2-0.7-0.3c-0.3-0.1-0.7-0.2-1-0.3
				s-0.6-0.3-0.8-0.5s-0.4-0.5-0.6-0.8c-0.2-0.3-0.2-0.7-0.2-1.2s0.1-0.9,0.2-1.3c0.2-0.4,0.4-0.7,0.7-1c0.3-0.3,0.6-0.5,1.1-0.7
				c0.4-0.2,0.9-0.2,1.4-0.2c0.5,0,1,0.1,1.5,0.2c0.5,0.1,1,0.3,1.5,0.6L5.8,69.3z"/>
			<path class="st2" d="M16.2,70C15.6,69.3,14.9,69,14,69c-0.4,0-0.7,0.1-1.1,0.2s-0.6,0.3-0.8,0.6c-0.2,0.2-0.4,0.5-0.6,0.9
				c-0.1,0.3-0.2,0.7-0.2,1.1c0,0.4,0.1,0.8,0.2,1.1c0.1,0.3,0.3,0.6,0.6,0.9s0.5,0.4,0.8,0.6c0.3,0.1,0.7,0.2,1,0.2
				c0.8,0,1.5-0.3,2.2-1v3l-0.3,0.1c-0.4,0.1-0.8,0.2-1.1,0.3c-0.3,0.1-0.7,0.1-1,0.1c-0.7,0-1.3-0.1-1.9-0.4
				c-0.6-0.3-1.2-0.6-1.6-1.1c-0.5-0.5-0.9-1-1.1-1.7c-0.3-0.6-0.4-1.3-0.4-2.1c0-0.8,0.1-1.4,0.4-2.1c0.3-0.6,0.7-1.2,1.1-1.6
				s1-0.8,1.6-1.1s1.3-0.4,2-0.4c0.4,0,0.8,0,1.2,0.1c0.4,0.1,0.8,0.2,1.2,0.4V70z"/>
			<path class="st2" d="M21,70.6h3.7v-3.8h2.5v9.8h-2.5v-4H21v4h-2.5v-9.8H21V70.6z"/>
			<path class="st2" d="M29.2,71.7c0-0.7,0.1-1.4,0.4-2s0.6-1.2,1.1-1.6c0.5-0.5,1-0.8,1.7-1.1c0.7-0.3,1.4-0.4,2.2-0.4
				c0.8,0,1.5,0.1,2.2,0.4c0.7,0.3,1.2,0.6,1.7,1.1c0.5,0.5,0.9,1,1.1,1.6c0.3,0.6,0.4,1.3,0.4,2s-0.1,1.4-0.4,2
				c-0.3,0.6-0.6,1.2-1.1,1.6c-0.5,0.5-1.1,0.8-1.7,1.1c-0.7,0.3-1.4,0.4-2.2,0.4c-0.8,0-1.5-0.1-2.2-0.4s-1.2-0.6-1.7-1.1
				c-0.5-0.5-0.8-1-1.1-1.6C29.3,73.1,29.2,72.4,29.2,71.7z M31.8,71.7c0,0.4,0.1,0.7,0.2,1.1c0.1,0.3,0.3,0.6,0.6,0.9
				c0.3,0.2,0.5,0.4,0.9,0.6s0.7,0.2,1.1,0.2c0.4,0,0.7-0.1,1.1-0.2c0.3-0.1,0.6-0.3,0.9-0.6s0.5-0.5,0.6-0.9
				c0.1-0.3,0.2-0.7,0.2-1.1c0-0.4-0.1-0.7-0.2-1.1c-0.1-0.3-0.3-0.6-0.6-0.9s-0.6-0.4-0.9-0.6C35.3,69,35,69,34.6,69
				c-0.4,0-0.7,0.1-1.1,0.2s-0.6,0.3-0.9,0.6c-0.3,0.2-0.5,0.5-0.6,0.9C31.9,70.9,31.8,71.3,31.8,71.7z"/>
			<path class="st2" d="M41.5,71.7c0-0.7,0.1-1.4,0.4-2s0.6-1.2,1.1-1.6c0.5-0.5,1-0.8,1.7-1.1c0.7-0.3,1.4-0.4,2.2-0.4
				c0.8,0,1.5,0.1,2.2,0.4c0.7,0.3,1.2,0.6,1.7,1.1c0.5,0.5,0.9,1,1.1,1.6s0.4,1.3,0.4,2s-0.1,1.4-0.4,2c-0.3,0.6-0.6,1.2-1.1,1.6
				c-0.5,0.5-1.1,0.8-1.7,1.1c-0.7,0.3-1.4,0.4-2.2,0.4c-0.8,0-1.5-0.1-2.2-0.4s-1.2-0.6-1.7-1.1c-0.5-0.5-0.8-1-1.1-1.6
				C41.6,73.1,41.5,72.4,41.5,71.7z M44.2,71.7c0,0.4,0.1,0.7,0.2,1.1c0.1,0.3,0.3,0.6,0.6,0.9c0.3,0.2,0.5,0.4,0.9,0.6
				c0.3,0.1,0.7,0.2,1.1,0.2c0.4,0,0.7-0.1,1.1-0.2c0.3-0.1,0.6-0.3,0.9-0.6c0.3-0.2,0.5-0.5,0.6-0.9c0.1-0.3,0.2-0.7,0.2-1.1
				c0-0.4-0.1-0.7-0.2-1.1c-0.1-0.3-0.3-0.6-0.6-0.9c-0.3-0.2-0.6-0.4-0.9-0.6C47.7,69,47.3,69,46.9,69c-0.4,0-0.7,0.1-1.1,0.2
				c-0.3,0.1-0.6,0.3-0.9,0.6c-0.3,0.2-0.5,0.5-0.6,0.9C44.2,70.9,44.2,71.3,44.2,71.7z"/>
			<path class="st2" d="M56.8,66.8v7.6h3.1v2.2h-5.6v-9.8H56.8z"/>
			<path class="st2" d="M65.8,71.7c0-0.7,0.1-1.4,0.4-2s0.6-1.2,1.1-1.6c0.5-0.5,1-0.8,1.7-1.1c0.7-0.3,1.4-0.4,2.2-0.4
				c0.8,0,1.5,0.1,2.2,0.4c0.7,0.3,1.2,0.6,1.7,1.1c0.5,0.5,0.9,1,1.1,1.6s0.4,1.3,0.4,2s-0.1,1.4-0.4,2c-0.3,0.6-0.6,1.2-1.1,1.6
				c-0.5,0.5-1.1,0.8-1.7,1.1c-0.7,0.3-1.4,0.4-2.2,0.4c-0.8,0-1.5-0.1-2.2-0.4s-1.2-0.6-1.7-1.1c-0.5-0.5-0.8-1-1.1-1.6
				C65.9,73.1,65.8,72.4,65.8,71.7z M68.4,71.7c0,0.4,0.1,0.7,0.2,1.1c0.1,0.3,0.3,0.6,0.6,0.9c0.3,0.2,0.5,0.4,0.9,0.6
				c0.3,0.1,0.7,0.2,1.1,0.2c0.4,0,0.7-0.1,1.1-0.2c0.3-0.1,0.6-0.3,0.9-0.6c0.3-0.2,0.5-0.5,0.6-0.9c0.1-0.3,0.2-0.7,0.2-1.1
				c0-0.4-0.1-0.7-0.2-1.1c-0.1-0.3-0.3-0.6-0.6-0.9c-0.3-0.2-0.6-0.4-0.9-0.6C71.9,69,71.6,69,71.2,69c-0.4,0-0.7,0.1-1.1,0.2
				c-0.3,0.1-0.6,0.3-0.9,0.6c-0.3,0.2-0.5,0.5-0.6,0.9C68.5,70.9,68.4,71.3,68.4,71.7z"/>
			<path class="st2" d="M84.1,68.9h-3.1v1.6h2.8v2.2h-2.8v3.8h-2.5v-9.8h5.6V68.9z"/>
			<path class="st2" d="M96.3,68.9h-3v1.6h2.9v2.2h-2.9v1.7h3v2.2h-5.6v-9.8h5.6V68.9z"/>
			<path class="st2" d="M98.4,76.6v-9.8h2.5l4.7,6v-6h2.5v9.8h-2.5l-4.7-6v6H98.4z"/>
			<path class="st2" d="M115.5,71.1h5.1c0,0.5,0,1-0.1,1.4c0,0.4-0.1,0.8-0.3,1.2c-0.2,0.5-0.4,1-0.7,1.4c-0.3,0.4-0.7,0.7-1.1,1
				c-0.4,0.3-0.9,0.5-1.4,0.6s-1,0.2-1.6,0.2c-0.8,0-1.5-0.1-2.1-0.4c-0.6-0.3-1.2-0.6-1.6-1.1s-0.8-1-1.1-1.6
				c-0.3-0.6-0.4-1.3-0.4-2.1c0-0.8,0.1-1.5,0.4-2.1c0.2-0.6,0.6-1.2,1.1-1.6c0.5-0.5,1-0.8,1.6-1.1c0.6-0.3,1.4-0.4,2.1-0.4
				c1,0,1.9,0.2,2.7,0.7c0.8,0.4,1.4,1.1,1.8,2.1l-2.4,1c-0.2-0.5-0.5-0.9-0.9-1.2c-0.4-0.2-0.8-0.4-1.2-0.4c-0.4,0-0.7,0.1-1,0.2
				c-0.3,0.1-0.6,0.3-0.8,0.6c-0.2,0.3-0.4,0.6-0.5,1c-0.1,0.4-0.2,0.8-0.2,1.2c0,0.4,0.1,0.8,0.2,1.2c0.1,0.4,0.3,0.7,0.5,0.9
				c0.2,0.3,0.5,0.5,0.8,0.6c0.3,0.1,0.7,0.2,1.1,0.2c0.3,0,0.5,0,0.7-0.1c0.2-0.1,0.4-0.1,0.6-0.3c0.2-0.1,0.3-0.3,0.5-0.5
				c0.1-0.2,0.2-0.4,0.2-0.7h-2.1V71.1z"/>
			<path class="st2" d="M125,66.8v7.6h3.1v2.2h-5.6v-9.8H125z"/>
			<path class="st2" d="M132.2,66.8v9.8h-2.5v-9.8H132.2z"/>
			<path class="st2" d="M140,69.3c-0.3-0.2-0.6-0.4-0.8-0.5s-0.5-0.2-0.8-0.2c-0.3,0-0.6,0.1-0.8,0.2c-0.2,0.2-0.3,0.4-0.3,0.6
				c0,0.2,0.1,0.3,0.2,0.4c0.1,0.1,0.2,0.2,0.4,0.3c0.2,0.1,0.4,0.2,0.6,0.2c0.2,0.1,0.4,0.1,0.6,0.2c0.8,0.3,1.4,0.6,1.8,1.1
				c0.4,0.5,0.6,1.1,0.6,1.8c0,0.5-0.1,1-0.3,1.4c-0.2,0.4-0.4,0.8-0.7,1c-0.3,0.3-0.7,0.5-1.2,0.7c-0.5,0.2-1,0.2-1.6,0.2
				c-1.2,0-2.4-0.4-3.4-1.1l1.1-2.1c0.4,0.3,0.8,0.6,1.1,0.8c0.4,0.2,0.7,0.2,1.1,0.2c0.4,0,0.7-0.1,0.9-0.3
				c0.2-0.2,0.3-0.4,0.3-0.6c0-0.1,0-0.3-0.1-0.4s-0.1-0.2-0.3-0.3c-0.1-0.1-0.3-0.2-0.5-0.3c-0.2-0.1-0.4-0.2-0.7-0.3
				c-0.3-0.1-0.7-0.2-1-0.3c-0.3-0.1-0.6-0.3-0.8-0.5s-0.4-0.5-0.6-0.8s-0.2-0.7-0.2-1.2s0.1-0.9,0.2-1.3s0.4-0.7,0.7-1
				c0.3-0.3,0.6-0.5,1.1-0.7c0.4-0.2,0.9-0.2,1.4-0.2c0.5,0,1,0.1,1.5,0.2c0.5,0.1,1,0.3,1.5,0.6L140,69.3z"/>
			<path class="st2" d="M145.8,70.6h3.7v-3.8h2.5v9.8h-2.5v-4h-3.7v4h-2.5v-9.8h2.5V70.6z"/>
		</g>
		<g>
			<g>
				<path class="st2" d="M22.1,25.6v3.3h-9.4v32.4H9.4V28.9H0v-3.3H22.1z"/>
				<path class="st2" d="M39.3,61.5c-2.5,0-4.9-0.5-7.1-1.5c-2.2-1-4.1-2.3-5.7-3.9s-2.9-3.5-3.8-5.7c-0.9-2.2-1.4-4.5-1.4-6.9
					c0-2.5,0.5-4.9,1.4-7.1c0.9-2.2,2.2-4.1,3.8-5.7c1.6-1.6,3.5-2.9,5.7-3.8c2.2-0.9,4.6-1.4,7.1-1.4c2.4,0,4.7,0.5,6.9,1.4
					c2.2,0.9,4.1,2.2,5.8,3.8c1.6,1.6,3,3.5,4,5.7c1,2.2,1.5,4.6,1.5,7.1c0,2.4-0.5,4.8-1.5,6.9c-1,2.2-2.3,4.1-4,5.7
					S48.4,59,46.3,60C44.1,61,41.8,61.5,39.3,61.5z M39.3,29c-2,0-3.9,0.4-5.7,1.1c-1.8,0.7-3.3,1.7-4.5,3c-1.3,1.3-2.3,2.8-3,4.6
					c-0.7,1.8-1.1,3.7-1.1,5.7c0,1.9,0.4,3.8,1.1,5.5c0.7,1.7,1.7,3.3,3,4.6c1.3,1.3,2.8,2.4,4.5,3.1c1.8,0.8,3.6,1.2,5.7,1.2
					c1.9,0,3.8-0.4,5.5-1.2c1.7-0.8,3.3-1.8,4.6-3.1c1.3-1.3,2.4-2.8,3.1-4.6c0.8-1.7,1.1-3.6,1.1-5.5c0-2.1-0.4-4-1.2-5.7
					c-0.8-1.7-1.8-3.3-3.2-4.6c-1.3-1.3-2.9-2.3-4.6-3C43.1,29.4,41.2,29,39.3,29z"/>
				<path class="st2" d="M102.9,25.6c-2.5,6.1-5.1,12.1-7.6,18s-5.1,11.9-7.6,18L80,44.1L77,51l-4.6,10.7l-15.2-36h3.7l11.5,26.5
					l3.2-7.1c0,0,0-0.1,0.1-0.2c0.1-0.1,0.1-0.2,0.2-0.3l2.3-5.1c-0.6-1.5-1.2-2.9-1.8-4.4c-0.6-1.5-1.2-2.9-1.8-4.4l-2.1-4.9h3.9
					l3.7,9.2l3.8-9.2h3.8l-5.7,13.8l5.7,12.7c0.4-1,0.9-2.1,1.5-3.4c0.5-1.2,1.1-2.5,1.6-3.7c0.6-1.3,1.1-2.5,1.6-3.7
					c0.5-1.2,1-2.4,1.5-3.5l5.3-12.2H102.9z"/>
				<path class="st2" d="M147.8,61.3l-10.2-15.7h-6.4v15.7h-3.3V25.6h9.4c1.3,0,2.5,0.2,3.7,0.7c1.2,0.5,2.3,1.1,3.2,2
					c1,0.9,1.7,1.9,2.3,3.2c0.6,1.2,0.9,2.6,0.9,4.2c0,1.9-0.6,3.7-1.7,5.3c-1.1,1.6-2.5,2.8-4.3,3.7c1.8,2.8,3.5,5.6,5.4,8.3
					c1.8,2.8,3.6,5.5,5.4,8.3H147.8z M137.4,41.9c1,0,1.8-0.2,2.6-0.6c0.8-0.4,1.4-0.9,1.9-1.5c0.5-0.6,0.9-1.3,1.2-2
					s0.4-1.5,0.4-2.2c0-1.2-0.2-2.1-0.7-3c-0.4-0.8-1-1.5-1.6-2c-0.6-0.5-1.3-0.9-2-1.1c-0.7-0.2-1.3-0.4-1.9-0.4h-6.2v12.6H137.4z"
					/>
			</g>
			<rect x="104.4" y="41.5" class="st11" width="18.6" height="3.2"/>
			<rect x="104.4" y="25.6" class="st11" width="18.6" height="3.6"/>
			<rect x="104.4" y="57.7" class="st11" width="18.6" height="3.6"/>
		</g>
	</g>
	<g>
		<rect x="104.4" y="11.2" class="st11" width="18.6" height="3.6"/>
		<g>
			<polygon class="st11" points="118.7,14.1 114.4,2.3 114.4,1.5 114.8,1.1 114.4,0.7 114.1,0.7 114.1,0.2 113.9,0 113.6,0 
				113.4,0.2 113.4,0.7 113.1,0.7 112.7,1.1 113.1,1.5 113.1,2.3 108.7,14.1 			"/>
		</g>
		<polygon class="st11" points="118.7,12.7 123,12.7 121.2,6 121.2,5 120.6,5 120.6,5.9 		"/>
		<polygon class="st11" points="104.4,12.7 108.7,12.7 106.9,6 106.9,5 106.3,5 106.3,5.9 		"/>
	</g>
</g>
</svg>
