<?xml version="1.0" encoding="utf-8"?>
<!-- Generator: Adobe Illustrator 20.1.0, SVG Export Plug-In . SVG Version: 6.00 Build 0)  -->
<svg version="1.1" id="Capa_1" xmlns="http://www.w3.org/2000/svg" xmlns:xlink="http://www.w3.org/1999/xlink" x="0px" y="0px"
	 viewBox="0 0 20 20" style="enable-background:new 0 0 20 20;" xml:space="preserve">
<style type="text/css">
	.st0{fill:#FFD93B;}
	.st1{fill:#3E4347;}
	.st2{fill:#F4C534;}
	.st3{fill:#5A5F63;}
</style>
<circle class="st0" cx="10" cy="10" r="10"/>
<path class="st1" d="M10,16.4c-2.9,0-5.5-2-6.2-4.8c-0.1-0.2,0.1-0.4,0.3-0.5c0.2-0.1,0.4,0.1,0.5,0.3c0.6,2.5,2.8,4.2,5.4,4.2
	s4.8-1.7,5.4-4.2c0.1-0.2,0.3-0.4,0.5-0.3c0.2,0.1,0.4,0.3,0.3,0.5C15.5,14.5,12.9,16.4,10,16.4z"/>
<path class="st2" d="M20,10c0,5.5-4.5,10-10,10c-3.1,0-5.9-1.5-7.8-3.7c1.7,1.4,3.9,2.2,6.3,2.2c5.5,0,10-4.5,10-10
	c0-2.4-0.8-4.6-2.2-6.3C18.6,4.1,20,6.9,20,10z"/>
<ellipse class="st1" cx="6.8" cy="8.6" rx="1.5" ry="1.8"/>
<path class="st3" d="M7.5,8.2C7.4,8.3,7.2,8.3,7,8.1C6.9,8,6.9,7.8,7,7.7c0.1-0.1,0.3-0.1,0.4,0.1C7.6,7.9,7.6,8.1,7.5,8.2z"/>
<ellipse class="st1" cx="13.2" cy="8.6" rx="1.5" ry="1.8"/>
<path class="st3" d="M13.9,8.2c-0.1,0.1-0.3,0-0.4-0.1c-0.1-0.2-0.1-0.4,0-0.5c0.1-0.1,0.3-0.1,0.4,0.1C14.1,7.9,14.1,8.1,13.9,8.2z
	"/>
</svg>
