<?xml version="1.0" encoding="utf-8"?><svg width="68" height="54" viewBox="0 0 68 54" xmlns="http://www.w3.org/2000/svg" xmlns:xlink="http://www.w3.org/1999/xlink"><svg version="1.1" id="facebook" viewBox="0 0 14 28" xml:space="preserve" width="14" height="28" xmlns="http://www.w3.org/2000/svg"><style>.ast0{fill:#e16925}</style><path class="ast0" d="M8.8 9.6V6.1c0-1 .8-1.8 1.8-1.8h1.8V0H8.8C5.9 0 3.5 2.4 3.5 5.2v4.4H0V14h3.5v14h5.2V14h3.5L14 9.6H8.8z"/></svg><svg version="1.1" id="instagram" x="14" viewBox="0 0 28 28" xml:space="preserve" width="28" height="28" xmlns="http://www.w3.org/2000/svg"><style>.bst0{fill:#e16925}</style><path class="bst0" d="M19.2 0H8.8C3.9 0 0 3.9 0 8.8v10.5C0 24.1 3.9 28 8.8 28h10.5c4.8 0 8.8-3.9 8.8-8.8V8.8C28 3.9 24.1 0 19.2 0zm6.2 19.2c0 3.4-2.7 6.1-6.1 6.1H8.8c-3.4 0-6.1-2.7-6.1-6.1V8.8c0-3.4 2.7-6.1 6.1-6.1h10.5c3.4 0 6.1 2.7 6.1 6.1v10.4z"/><path class="bst0" d="M14 7c-3.9 0-7 3.1-7 7s3.1 7 7 7 7-3.1 7-7-3.1-7-7-7zm0 11.4c-2.4 0-4.4-2-4.4-4.4 0-2.4 2-4.4 4.4-4.4s4.4 2 4.4 4.4c0 2.4-2 4.4-4.4 4.4z"/><circle class="bst0" cx="21.5" cy="6.5" r=".9"/></svg><svg version="1.1" id="phone" x="42" viewBox="0 0 26 26" xml:space="preserve" width="26" height="26" xmlns="http://www.w3.org/2000/svg"><style>.cst0{fill:#003a61}</style><path class="cst0" d="M21.1 1.7L17.6 7c-.4.7-.3 1.6.3 2.1l2 1.5c.3.2.3.6.2.8l-.2.3c-.5 1-1.2 2.2-3.6 4.6s-3.6 3.1-4.6 3.6l-.3.1c-.3.2-.6.1-.8-.2l-1.5-2c-.5-.6-1.4-.8-2.1-.3L1.7 21c-.7.5-.9 1.4-.5 2.1l1.3 2.2c.4.7 1.1 1.2 1.8 1.4 2.9.8 7.9.2 15.2-7.1C25.4 13.8 27 9.4 27 6.4c0-.7-.1-1.4-.3-2-.2-.8-.7-1.4-1.4-1.8l-2.2-1.3c-.7-.5-1.6-.3-2 .4zm1.6.3l2.2 1.3c.5.3.9.8 1 1.3.7 2.7.1 7.3-6.9 14.4S7.3 26.6 4.6 25.9c-.6-.2-1-.5-1.3-1L2 22.7c-.2-.3-.1-.7.2-.9L5 19.9l2.4-1.6c.3-.2.7-.1.9.1l1.5 2c.5.6 1.3.8 1.9.4l.3-.2c1-.6 2.3-1.2 4.8-3.8 2.5-2.5 3.2-3.8 3.8-4.8l.2-.3c.4-.7.2-1.5-.4-1.9l-2-1.5c-.3-.2-.3-.6-.1-.9l3.5-5.3c.2-.2.6-.3.9-.1z" transform="translate(-1 -1)"/></svg><svg version="1.1" id="placeholder" y="28" viewBox="0 0 18.2 26" xml:space="preserve" width="18.2" height="26" xmlns="http://www.w3.org/2000/svg"><style>.dst0{fill:#003a61}</style><path class="dst0" d="M9.2 5.8c-1.8 0-3.3 1.5-3.3 3.3s1.5 3.3 3.3 3.3 3.3-1.5 3.3-3.3S11 5.8 9.2 5.8zm0 5.7c-1.3 0-2.4-1.1-2.4-2.4s1.1-2.4 2.4-2.4 2.4 1.1 2.4 2.4c-.1 1.3-1.1 2.4-2.4 2.4z"/><path class="dst0" d="M15.5 2.7C13.8 1 11.5 0 9.1 0S4.4.9 2.7 2.7c-3.2 3.2-3.6 9.2-.9 12.8L9.1 26l7.3-10.5c2.7-3.6 2.3-9.6-.9-12.8zm.1 12.3l-6.5 9.4L2.6 15C.1 11.7.5 6.3 3.4 3.4 4.9 1.9 7 1 9.2 1s4.2.8 5.8 2.4c2.7 2.9 3.1 8.3.6 11.6z"/></svg></svg>