<?xml version="1.0" encoding="utf-8"?>
<!-- Generator: Adobe Illustrator 20.1.0, SVG Export Plug-In . SVG Version: 6.00 Build 0)  -->
<svg version="1.1" id="Capa_1" xmlns="http://www.w3.org/2000/svg" xmlns:xlink="http://www.w3.org/1999/xlink" x="0px" y="0px"
	 viewBox="0 0 28 28" style="enable-background:new 0 0 28 28;" xml:space="preserve">
<style type="text/css">
	.st0{fill:#E16925;}
</style>
<g>
	<g>
		<path class="st0" d="M19.2,0H8.8C3.9,0,0,3.9,0,8.8v10.5C0,24.1,3.9,28,8.8,28h10.5c4.8,0,8.8-3.9,8.8-8.8V8.8
			C28,3.9,24.1,0,19.2,0z M25.4,19.2c0,3.4-2.7,6.1-6.1,6.1H8.8c-3.4,0-6.1-2.7-6.1-6.1V8.8c0-3.4,2.7-6.1,6.1-6.1h10.5
			c3.4,0,6.1,2.7,6.1,6.1V19.2z"/>
	</g>
</g>
<g>
	<g>
		<path class="st0" d="M14,7c-3.9,0-7,3.1-7,7s3.1,7,7,7s7-3.1,7-7S17.9,7,14,7z M14,18.4c-2.4,0-4.4-2-4.4-4.4c0-2.4,2-4.4,4.4-4.4
			s4.4,2,4.4,4.4C18.4,16.4,16.4,18.4,14,18.4z"/>
	</g>
</g>
<g>
	<g>
		<circle class="st0" cx="21.5" cy="6.5" r="0.9"/>
	</g>
</g>
</svg>
