<?xml version="1.0" encoding="utf-8"?>
<!-- Generator: Adobe Illustrator 20.1.0, SVG Export Plug-In . SVG Version: 6.00 Build 0)  -->
<svg version="1.1" id="Capa_1" xmlns="http://www.w3.org/2000/svg" xmlns:xlink="http://www.w3.org/1999/xlink" x="0px" y="0px"
	 viewBox="0 0 26 26" style="enable-background:new 0 0 26 26;" xml:space="preserve">
<style type="text/css">
	.st0{fill:#E16925;}
</style>
<g transform="translate(-1 -1)">
	<g>
		<g>
			<path class="st0" d="M21.1,1.7L17.6,7c-0.4,0.7-0.3,1.6,0.3,2.1l2,1.5c0.3,0.2,0.3,0.6,0.2,0.8l-0.2,0.3c-0.5,1-1.2,2.2-3.6,4.6
				s-3.6,3.1-4.6,3.6L11.4,20c-0.3,0.2-0.6,0.1-0.8-0.2l-1.5-2C8.6,17.2,7.7,17,7,17.5L1.7,21c-0.7,0.5-0.9,1.4-0.5,2.1l1.3,2.2
				c0.4,0.7,1.1,1.2,1.8,1.4c2.9,0.8,7.9,0.2,15.2-7.1C25.4,13.8,27,9.4,27,6.4c0-0.7-0.1-1.4-0.3-2C26.5,3.6,26,3,25.3,2.6
				l-2.2-1.3C22.4,0.8,21.5,1,21.1,1.7z"/>
		</g>
	</g>
</g>
</svg>
