<?xml version="1.0" encoding="utf-8"?>
<!-- Generator: Adobe Illustrator 20.1.0, SVG Export Plug-In . SVG Version: 6.00 Build 0)  -->
<svg version="1.1" id="Capa_1" xmlns="http://www.w3.org/2000/svg" xmlns:xlink="http://www.w3.org/1999/xlink" x="0px" y="0px"
	 viewBox="0 0 26 26" style="enable-background:new 0 0 26 26;" xml:space="preserve">
<style type="text/css">
	.st0{fill:#003A61;}
</style>
<g transform="translate(-1 -1)">
	<g>
		<g>
			<path class="st0" d="M21.1,1.7l-3.5,5.3c-0.4,0.7-0.3,1.6,0.3,2.1l2,1.5c0.3,0.2,0.3,0.6,0.2,0.8l-0.2,0.3
				c-0.5,1-1.2,2.2-3.6,4.6s-3.6,3.1-4.6,3.6L11.4,20c-0.3,0.2-0.6,0.1-0.8-0.2l-1.5-2c-0.5-0.6-1.4-0.8-2.1-0.3l-5.3,3.5
				c-0.7,0.5-0.9,1.4-0.5,2.1l1.3,2.2c0.4,0.7,1.1,1.2,1.8,1.4c2.9,0.8,7.9,0.2,15.2-7.1C25.4,13.8,27,9.4,27,6.4
				c0-0.7-0.1-1.4-0.3-2c-0.2-0.8-0.7-1.4-1.4-1.8l-2.2-1.3C22.4,0.8,21.5,1,21.1,1.7z M22.7,2l2.2,1.3c0.5,0.3,0.9,0.8,1,1.3
				C26.6,7.3,26,11.9,19,19S7.3,26.6,4.6,25.9c-0.6-0.2-1-0.5-1.3-1L2,22.7c-0.2-0.3-0.1-0.7,0.2-0.9L5,19.9l2.4-1.6
				c0.3-0.2,0.7-0.1,0.9,0.1l1.5,2c0.5,0.6,1.3,0.8,1.9,0.4l0.3-0.2c1-0.6,2.3-1.2,4.8-3.8c2.5-2.5,3.2-3.8,3.8-4.8l0.2-0.3
				c0.4-0.7,0.2-1.5-0.4-1.9l-2-1.5c-0.3-0.2-0.3-0.6-0.1-0.9l3.5-5.3C22,1.9,22.4,1.8,22.7,2z"/>
		</g>
	</g>
</g>
</svg>
