<?xml version="1.0" encoding="utf-8"?>
<!-- Generator: Adobe Illustrator 20.1.0, SVG Export Plug-In . SVG Version: 6.00 Build 0)  -->
<svg version="1.1" id="Capa_1" xmlns="http://www.w3.org/2000/svg" xmlns:xlink="http://www.w3.org/1999/xlink" x="0px" y="0px"
	 viewBox="0 0 18.2 26" style="enable-background:new 0 0 18.2 26;" xml:space="preserve">
<style type="text/css">
	.st0{fill:#E16925;}
</style>
<g>
	<path class="st0" d="M9.2,5.8c-1.8,0-3.3,1.5-3.3,3.3s1.5,3.3,3.3,3.3s3.3-1.5,3.3-3.3S11,5.8,9.2,5.8z M9.2,11.5
		c-1.3,0-2.4-1.1-2.4-2.4s1.1-2.4,2.4-2.4s2.4,1.1,2.4,2.4C11.5,10.4,10.5,11.5,9.2,11.5z"/>
	<path class="st0" d="M15.5,2.7C13.8,1,11.5,0,9.1,0S4.4,0.9,2.7,2.7c-3.2,3.2-3.6,9.2-0.9,12.8L9.1,26l7.3-10.5
		C19.1,11.9,18.7,5.9,15.5,2.7z M15.6,15l-6.5,9.4L2.6,15C0.1,11.7,0.5,6.3,3.4,3.4C4.9,1.9,7,1,9.2,1s4.2,0.8,5.8,2.4
		C17.7,6.3,18.1,11.7,15.6,15z"/>
</g>
</svg>
