<?xml version="1.0" encoding="utf-8"?>
<!-- Generator: Adobe Illustrator 20.1.0, SVG Export Plug-In . SVG Version: 6.00 Build 0)  -->
<svg version="1.1" id="Capa_1" xmlns="http://www.w3.org/2000/svg" xmlns:xlink="http://www.w3.org/1999/xlink" x="0px" y="0px"
	 viewBox="0 0 16 16" style="enable-background:new 0 0 16 16;" xml:space="preserve">
<style type="text/css">
	.st0{fill:#FFD93B;}
	.st1{fill:#3E4347;}
	.st2{fill:#F4C534;}
	.st3{fill:#5A5F63;}
</style>
<circle class="st0" cx="8" cy="8" r="8"/>
<path class="st1" d="M8,13.1c-2.3,0-4.4-1.6-5-3.8C3,9.1,3.1,9,3.3,8.9C3.4,8.8,3.6,9,3.7,9.1c0.5,2,2.2,3.4,4.3,3.4
	s3.8-1.4,4.3-3.4c0.1-0.2,0.2-0.3,0.4-0.2C12.9,9,13,9.1,13,9.3C12.4,11.6,10.3,13.1,8,13.1z"/>
<path class="st2" d="M16,8c0,4.4-3.6,8-8,8c-2.5,0-4.7-1.2-6.2-3c1.4,1.1,3.1,1.8,5,1.8c4.4,0,8-3.6,8-8c0-1.9-0.6-3.7-1.8-5
	C14.9,3.3,16,5.5,16,8z"/>
<ellipse class="st1" cx="5.4" cy="6.9" rx="1.2" ry="1.4"/>
<path class="st3" d="M6,6.6C5.9,6.6,5.8,6.6,5.6,6.5c-0.1-0.1-0.1-0.2,0-0.3c0.1-0.1,0.2-0.1,0.3,0.1C6.1,6.3,6.1,6.5,6,6.6z"/>
<ellipse class="st1" cx="10.6" cy="6.9" rx="1.2" ry="1.4"/>
<path class="st3" d="M11.1,6.6c-0.1,0.1-0.2,0-0.3-0.1c-0.1-0.2-0.1-0.3,0-0.4C10.9,6,11,6,11.1,6.2C11.3,6.3,11.3,6.5,11.1,6.6z"/>
</svg>
