<?xml version="1.0" encoding="utf-8"?>
<!-- Generator: Adobe Illustrator 20.1.0, SVG Export Plug-In . SVG Version: 6.00 Build 0)  -->
<svg version="1.1" id="Layer_1" xmlns="http://www.w3.org/2000/svg" xmlns:xlink="http://www.w3.org/1999/xlink" x="0px" y="0px"
	 viewBox="0 0 28 18.3" style="enable-background:new 0 0 28 18.3;" xml:space="preserve">
<style type="text/css">
	.st0{fill:#41479B;}
	.st1{fill:#F5F5F5;}
	.st2{fill:#FF4B55;}
</style>
<path class="st0" d="M25.9,0H2.1C0.9,0,0,0.9,0,2.1v14.2c0,1.2,0.9,2.1,2.1,2.1h23.8c1.2,0,2.1-0.9,2.1-2.1V2.1
	C28,0.9,27.1,0,25.9,0z"/>
<path class="st1" d="M28,1.8c-0.2-1-1-1.8-2.1-1.8h-0.5l-8.9,5.9V0h-4.8v5.9L2.6,0H2.1C1.1,0,0.2,0.8,0,1.8l7.6,5H0v4.8h7.7l-7.6,5
	c0.2,1,1,1.8,2.1,1.8h0.5l8.9-5.9v5.9h4.8v-5.9l8.9,5.9h0.5c1,0,1.9-0.8,2.1-1.8l-7.6-5H28V6.8h-7.7L28,1.8z"/>
<g>
	<polygon class="st2" points="15.4,0 12.6,0 12.6,7.7 0,7.7 0,10.6 12.6,10.6 12.6,18.3 15.4,18.3 15.4,10.6 28,10.6 28,7.7 
		15.4,7.7 	"/>
	<path class="st2" d="M1.4,18.2l10.2-6.6H9.8l-9.3,6C0.7,17.9,1,18.1,1.4,18.2z"/>
	<path class="st2" d="M18.9,11.6h-1.8l9.9,6.4c0.3-0.2,0.5-0.4,0.7-0.7L18.9,11.6z"/>
	<path class="st2" d="M0.2,1.2l8.6,5.6h1.8L0.8,0.4C0.6,0.6,0.4,0.9,0.2,1.2z"/>
	<path class="st2" d="M18.2,6.8l9.3-6c-0.2-0.3-0.5-0.5-0.9-0.6L16.4,6.8H18.2z"/>
</g>
</svg>
